<svg xmlns="http://www.w3.org/2000/svg"  x="0px" y="0px"
   width="396.74px" height="560px" viewBox="281.63 0 396.74 560" enable-background="new 281.63 0 396.74 560" xml:space="preserve"
>
  <defs>
    <clippath id="a">
      <path d="M0 186h540V0H0z"/>
    </clippath>
  </defs>
  <path d="M9.66 19.68l11.03 17.5L43.42 0H21.7z" fill="#ea4435"/>
  <g clip-path="url(#a)" transform="matrix(1.33333 0 0 -1.33333 -62.09 159.25)">
    <path d="M62.08 91.55l-8.27 13.13-6.61-10.8a4.48 4.48 0 0 1-.64-2.35c0-.86.22-1.67.64-2.35l15.65-25.56h16.28l-17.06 27.9z" fill="#478fcd"/>
    <path d="M115.93 93.87l-15.65 25.57H84l17.06-27.91-.02-.04 8.27-13.13 6.62 10.82c.42.68.63 1.5.63 2.35 0 .85-.21 1.67-.63 2.34" fill="#36a852"/>
    <path d="M88.74 71.37L84 63.62h16.28l4.75 7.75 4.3 7.03-8.27 13.13z" fill="#f9bc15"/>
  </g>
</svg>
